<svg id="Calque_1" data-name="Calque 1" xmlns="http://www.w3.org/2000/svg" viewBox="0 0 97.96 16.03"><defs><style>.cls-1{fill:#d9b929;}</style></defs><path class="cls-1" d="M4.47,17.7l1-5.79L1.18,7.85,7,7,9.54,1.67l2.64,5.24,5.81.8-4.17,4.13,1,5.77L9.65,14.93ZM3.33,8.53l3.16,3-.7,4.31L9.64,13.8l3.88,2-.77-4.3,3.1-3.08-4.33-.59-2-3.9L7.65,7.86Z" transform="translate(-1.18 -1.67)"/><path class="cls-1" d="M24.76,17.7l.94-5.79L21.47,7.85l5.8-.9,2.55-5.28,2.64,5.24,5.82.8-4.17,4.13,1,5.77-5.22-2.68ZM23.62,8.53l3.15,3-.7,4.31,3.85-2.06,3.89,2L33,11.5l3.11-3.08-4.33-.59-2-3.9-1.9,3.93Z" transform="translate(-1.18 -1.67)"/><path class="cls-1" d="M45.05,17.7,46,11.91,41.75,7.85l5.8-.9,2.56-5.28,2.64,5.24,5.82.8L54.4,11.84l1,5.77-5.22-2.68ZM43.91,8.53l3.15,3-.7,4.31,3.85-2.06,3.88,2-.77-4.3,3.1-3.08-4.33-.59-2-3.9-1.9,3.93Z" transform="translate(-1.18 -1.67)"/><path class="cls-1" d="M65.33,17.7l1-5.79L62,7.85l5.8-.9L70.4,1.67,73,6.91l5.81.8-4.17,4.13,1,5.77-5.21-2.68ZM64.19,8.53l3.16,3-.7,4.31L70.5,13.8l3.88,2-.77-4.3,3.1-3.08-4.33-.59-2-3.9L68.51,7.86Z" transform="translate(-1.18 -1.67)"/><path class="cls-1" d="M85.62,17.7l.94-5.79L82.33,7.85l5.8-.9,2.55-5.28,2.64,5.24,5.82.8L95,11.84l1,5.77-5.22-2.68ZM84.48,8.53l3.16,3-.71,4.31,3.85-2.06,3.89,2-.78-4.3L97,8.42l-4.33-.59-2-3.9L88.8,7.86Z" transform="translate(-1.18 -1.67)"/></svg>