<svg id="Calque_1" data-name="Calque 1" xmlns="http://www.w3.org/2000/svg" viewBox="0 0 97.96 16.03"><defs><style>.cls-1{fill:#d9b929;}</style></defs><polygon class="cls-1" points="10.67 5.7 15.74 6.4 12.1 10 13.01 15.04 8.46 12.69 3.95 15.11 4.77 10.06 1.08 6.52 6.14 5.74 8.37 1.13 10.67 5.7"/><path class="cls-1" d="M4.47,17.7l1-5.79L1.18,7.85,7,7,9.54,1.67l2.64,5.24,5.81.8-4.17,4.13,1,5.77L9.65,14.93ZM3.33,8.53l3.16,3-.7,4.31L9.64,13.8l3.88,2-.77-4.3,3.1-3.08-4.33-.59-2-3.9L7.65,7.86Z" transform="translate(-1.18 -1.67)"/><polygon class="cls-1" points="30.95 5.7 36.03 6.4 32.39 10 33.3 15.04 28.75 12.69 24.24 15.11 25.06 10.06 21.36 6.52 26.42 5.74 28.65 1.13 30.95 5.7"/><path class="cls-1" d="M24.76,17.7l.94-5.79L21.47,7.85l5.8-.9,2.55-5.28,2.64,5.24,5.82.8-4.17,4.13,1,5.77-5.22-2.68ZM23.62,8.53l3.15,3-.7,4.31,3.85-2.06,3.89,2L33,11.5l3.11-3.08-4.33-.59-2-3.9-1.9,3.93Z" transform="translate(-1.18 -1.67)"/><polygon class="cls-1" points="51.24 5.7 56.31 6.4 52.68 10 53.59 15.04 49.03 12.69 44.52 15.11 45.35 10.06 41.65 6.52 46.71 5.74 48.94 1.13 51.24 5.7"/><path class="cls-1" d="M45.05,17.7,46,11.91,41.75,7.85l5.8-.9,2.56-5.28,2.64,5.24,5.82.8L54.4,11.84l1,5.77-5.22-2.68ZM43.91,8.53l3.15,3-.7,4.31,3.85-2.06,3.88,2-.77-4.3,3.1-3.08-4.33-.59-2-3.9-1.9,3.93Z" transform="translate(-1.18 -1.67)"/><path class="cls-1" d="M65.33,17.7l1-5.79L62,7.85l5.8-.9L70.4,1.67,73,6.91l5.81.8-4.17,4.13,1,5.77-5.21-2.68ZM64.19,8.53l3.16,3-.7,4.31L70.5,13.8l3.88,2-.77-4.3,3.1-3.08-4.33-.59-2-3.9L68.51,7.86Z" transform="translate(-1.18 -1.67)"/><path class="cls-1" d="M85.62,17.7l.94-5.79L82.33,7.85l5.8-.9,2.55-5.28,2.64,5.24,5.82.8L95,11.84l1,5.77-5.22-2.68ZM84.48,8.53l3.16,3-.71,4.31,3.85-2.06,3.89,2-.78-4.3L97,8.42l-4.33-.59-2-3.9L88.8,7.86Z" transform="translate(-1.18 -1.67)"/></svg>